<?xml version="1.0" encoding="UTF-8"?>
<svg id="Calque_1" data-name="Calque 1" xmlns="http://www.w3.org/2000/svg" viewBox="0 0 1000 1000">
  <defs>
    <style>
      .cls-1 {
        fill: #231f20;
      }

      .cls-2 {
        isolation: isolate;
      }
    </style>
  </defs>
  <path class="cls-1" d="M500,13.65C237.01,13.65,23.06,227.61,23.06,490.6c0,146.1,66.1,277,169.88,364.55v-5.52C91.62,762.86,27.23,634.14,27.23,490.6,27.23,229.91,239.31,17.82,500,17.82s472.77,212.09,472.77,472.77c0,155.37-75.36,293.45-191.43,379.68v5.12c118.48-86.86,195.6-226.96,195.6-384.8,0-262.99-213.96-476.94-476.94-476.94Z"/>
  <g id="text_nature_paysagiste" data-name="text nature &amp;amp; paysagiste" class="cls-2">
    <g class="cls-2">
      <path class="cls-1" d="M297.12,810.99c0,5.04-1.37,7.56-4.1,7.56-1.48,0-2.71-.61-3.71-1.82-1-1.21-2.08-2.76-3.24-4.65l-47.2-74.31c-.53-.63-1-.94-1.42-.94-.32,0-.47.73-.47,2.2v52.16c0,4.82.26,8.46.79,10.92.53,2.46,1.68,4.11,3.47,4.95,1.05.52,2.1.84,3.16.94,1.05.11,2,.18,2.84.24.84.05,1.52.26,2.05.63.53.37.79,1.02.79,1.96,0,2.3-1.37,3.46-4.1,3.46-1.16,0-2.74-.16-4.74-.47-2-.32-4.42-.47-7.26-.47s-5.16.16-6.95.47c-1.79.32-3.16.47-4.1.47-2.32,0-3.47-1.15-3.47-3.46,0-.84.16-1.44.47-1.81.32-.37.79-.6,1.42-.71.63-.1,1.37-.21,2.21-.32.84-.1,1.79-.37,2.84-.79,1.79-.63,2.94-2.2,3.47-4.71.53-2.51.79-6.29.79-11.31v-57.03c0-3.46-.18-6.18-.55-8.17-.37-1.99-1.29-3.35-2.76-4.09-.74-.31-1.5-.5-2.29-.55-.79-.05-1.53-.13-2.21-.24-.69-.1-1.24-.34-1.66-.71-.42-.37-.63-1.02-.63-1.96,0-2.3,1-3.46,3-3.46.42,0,1.79.11,4.1.31,2.31.21,5.79.31,10.42.31,2.74,0,4.97-.05,6.71-.16s2.92-.16,3.55-.16c1.26,0,2.16.18,2.68.55.53.37,1.21,1.18,2.05,2.43l34.89,53.89c.63.94,1.16,1.42,1.58,1.42.84,0,1.26-.73,1.26-2.2v-33.47c0-4.82-.29-8.43-.87-10.84-.58-2.41-1.76-4.03-3.55-4.87-1.16-.52-2.26-.84-3.31-.94-1.05-.1-1.97-.21-2.76-.32-.79-.1-1.42-.34-1.89-.71s-.71-1.02-.71-1.97c0-2.3,1.31-3.46,3.95-3.46,1.47,0,2.76.13,3.87.39,1.1.26,2.02.4,2.76.4.21,0,.76.03,1.66.08.89.05,2.18.08,3.87.08,1.79,0,3.1-.02,3.95-.08.84-.05,1.37-.08,1.58-.08.53,0,1.26-.13,2.21-.4.95-.26,2.05-.39,3.31-.39,2.31,0,3.47,1.15,3.47,3.46,0,.84-.16,1.42-.47,1.73-.32.32-.76.55-1.34.71-.58.16-1.32.29-2.21.39-.9.11-1.87.37-2.92.78-1.79.63-2.95,2.2-3.47,4.72-.53,2.51-.79,6.28-.79,11.31v73.06Z"/>
    </g>
    <g class="cls-2">
      <path class="cls-1" d="M366.58,795.66c0,3.05.18,5.26.55,6.63.37,1.37,1.24,2.05,2.6,2.05.95,0,1.82-.42,2.6-1.26.79-.84,1.45-1.26,1.97-1.26.32,0,.71.26,1.18.79.47.53.71,1.21.71,2.05,0,.95-.47,2.13-1.42,3.55s-2.24,2.79-3.87,4.1c-1.63,1.32-3.48,2.45-5.53,3.39s-4.19,1.42-6.41,1.42c-2.75,0-4.83-.92-6.26-2.76-1.43-1.84-2.93-4.87-4.51-9.08h-.63c-4.33,4-8.29,7-11.88,9s-6.7,3-9.34,3c-4.01,0-7.18-1.5-9.5-4.51-2.32-3-3.48-6.88-3.48-11.63,0-2.85.39-5.35,1.18-7.52.79-2.16,2-4.17,3.63-6.01,1.63-1.84,3.66-3.59,6.08-5.22,2.42-1.63,5.26-3.35,8.52-5.14l12.63-6.96c1.05-.63,1.58-1.95,1.58-3.95v-10.13c0-6.12-1.58-9.17-4.74-9.17-1.16,0-2.16.32-3,.95-.84.63-1.61,1.45-2.29,2.45-.69,1-1.37,2.19-2.05,3.55-.69,1.37-1.4,2.79-2.13,4.26-3.16,6.21-7.89,9.31-14.21,9.31-3.16,0-4.74-1.52-4.74-4.58,0-2.31.81-4.79,2.45-7.42,1.63-2.63,3.79-4.99,6.47-7.08,2.68-2.09,5.81-3.83,9.39-5.21,3.58-1.38,7.31-2.08,11.21-2.08,7.3,0,12.99,1.63,17.08,4.89,4.08,3.26,6.13,7.89,6.13,13.89v35.68ZM346.06,776.72c-.42,0-.9.21-1.42.63l-4.42,2.84c-6.53,4.32-9.79,9.21-9.79,14.68,0,2.74.66,4.95,1.97,6.63,1.31,1.68,3.08,2.53,5.29,2.53,2.95,0,5.23-1.1,6.87-3.31,1.63-2.21,2.45-5.58,2.45-10.1v-12c0-1.26-.32-1.89-.95-1.89Z"/>
    </g>
    <g class="cls-2">
      <path class="cls-1" d="M406.52,741.99c0,1.47.58,2.21,1.74,2.21h10.1c1.05,0,1.68.19,1.89.55.21.37.32.97.32,1.82v2.37c0,1.16-.11,2-.32,2.53-.21.53-.84.79-1.89.79h-10.1c-1.16,0-1.74.74-1.74,2.21l-.47,32.52v2.84c0,5.37.29,9.31.87,11.84.58,2.53,1.71,3.79,3.39,3.79.73,0,1.5-.21,2.29-.63.79-.42,1.55-.89,2.29-1.42.73-.53,1.39-1,1.97-1.42.58-.42,1.08-.63,1.5-.63.53,0,1.1.34,1.74,1.03.63.69.95,1.34.95,1.97,0,1.05-.58,2.32-1.74,3.79-1.16,1.47-2.68,2.9-4.58,4.26-1.89,1.37-4.05,2.53-6.47,3.47-2.42.95-4.89,1.42-7.42,1.42-5.37,0-9.1-1.71-11.21-5.13-2.11-3.42-3.16-8.66-3.16-15.71v-5.84l.63-33.94c0-1.47-.11-2.66-.32-3.55-.21-.89-.84-1.34-1.89-1.34h-2.84c-2.42,0-3.63-.84-3.63-2.53,0-.95.4-1.79,1.18-2.53.79-.73,1.82-1.5,3.08-2.29,1.26-.79,2.74-1.76,4.42-2.92,1.68-1.16,3.42-2.68,5.21-4.58,1.47-1.58,2.76-3.1,3.87-4.58,1.1-1.47,2.1-2.81,3-4.03.89-1.21,1.71-2.16,2.45-2.84.73-.68,1.52-1.03,2.37-1.03,1.16,0,1.87.37,2.13,1.1.26.74.4,1.79.4,3.16v13.26Z"/>
    </g>
    <g class="cls-2">
      <path class="cls-1" d="M452.61,789.98c0,11.68,3.1,17.52,9.31,17.52,4.21,0,6.97-1.66,8.29-4.97,1.31-3.32,1.97-7.92,1.97-13.81v-29.52c0-2.21-.11-3.95-.32-5.21-.21-1.26-.9-2.26-2.05-3-.74-.42-1.53-.68-2.37-.79-.84-.1-1.63-.21-2.37-.32-.74-.1-1.34-.37-1.82-.79-.47-.42-.71-1.21-.71-2.37s.21-1.92.63-2.29c.42-.37,1.05-.55,1.89-.55.42,0,1.58.11,3.47.32,1.89.21,4.57.32,8.02.32,3.86,0,6.81-.13,8.85-.39,2.04-.26,3.31-.39,3.84-.39,1.15,0,1.85.34,2.11,1.03.26.69.39,2.13.39,4.34v47.83c0,1.58.1,2.87.32,3.87.21,1,.79,1.82,1.74,2.45.63.42,1.31.69,2.05.79.73.11,1.42.24,2.05.39.63.16,1.16.39,1.58.71.42.32.63.89.63,1.74,0,1.47-.58,2.45-1.74,2.92-1.16.47-3.05,1.03-5.68,1.66-5.25,1.37-8.87,2.61-10.86,3.71-2,1.11-3.2,1.66-3.62,1.66-.95,0-1.6-.32-1.97-.95-.37-.63-.66-1.63-.87-3l-.63-6.16-.79-.16c-2.73,3.47-5.88,6.13-9.44,7.97-3.57,1.84-7.19,2.76-10.86,2.76-4.73,0-8.45-.74-11.18-2.21s-4.8-3.58-6.22-6.31c-1.42-2.74-2.31-6.02-2.68-9.87-.37-3.84-.55-8.08-.55-12.71v-26.99c0-2.31-.11-4.08-.32-5.29-.21-1.21-.84-2.18-1.89-2.92-.63-.42-1.29-.66-1.97-.71-.69-.05-1.34-.16-1.97-.32s-1.16-.45-1.58-.87c-.42-.42-.63-1.16-.63-2.21,0-1.16.21-1.92.63-2.29.42-.37,1.1-.55,2.05-.55.84,0,2.1.08,3.79.24,1.68.16,3.89.24,6.63.24,3.68,0,6.55-.13,8.6-.39,2.05-.26,3.34-.39,3.87-.39,1.16,0,1.84.26,2.05.79.21.53.32,1.63.32,3.32v42.15Z"/>
    </g>
    <g class="cls-2">
      <path class="cls-1" d="M532.48,749.88c0,1.05.16,1.58.47,1.58s.74-.32,1.26-.95l1.42-1.89c3.47-4.42,7.26-6.63,11.37-6.63,3.37,0,6.1,1.11,8.21,3.32,2.1,2.21,3.16,5.11,3.16,8.68,0,4-.95,7.08-2.84,9.23-1.89,2.16-4.26,3.24-7.1,3.24-1.89,0-3.45-.47-4.66-1.42-1.21-.95-2.24-1.97-3.08-3.08-.84-1.1-1.61-2.13-2.29-3.08-.69-.95-1.4-1.42-2.13-1.42-2.11,0-3.16,2.63-3.16,7.89v33.83c0,2.31.13,4.07.39,5.27.26,1.21.97,2.17,2.13,2.91.74.53,1.52.81,2.37.87.84.05,1.6.13,2.29.24.68.11,1.26.34,1.74.71.47.37.71,1.13.71,2.28,0,1.89-.58,2.83-1.74,2.83-.84,0-2.74-.18-5.68-.55-2.95-.37-6.95-.55-12-.55s-9,.19-11.84.55c-2.84.37-4.63.55-5.37.55s-1.32-.26-1.74-.79c-.42-.53-.63-1.21-.63-2.05,0-1.05.21-1.76.63-2.12.42-.37.95-.63,1.58-.79.63-.16,1.31-.26,2.05-.32.74-.05,1.47-.23,2.21-.55,1.47-.74,2.39-1.7,2.76-2.91.37-1.21.55-3.07.55-5.59v-31.82c0-.53-.03-1.05-.08-1.58-.05-.52-.08-1.15-.08-1.89,0-1.47-.21-2.65-.63-3.54-.42-.89-1.26-1.55-2.53-1.97-1.58-.42-2.9-.68-3.95-.79-1.05-.1-1.58-.89-1.58-2.36,0-.95.26-1.68.79-2.21.53-.52,1.26-.94,2.21-1.26.95-.32,2.08-.66,3.39-1.02,1.31-.37,2.76-.92,4.34-1.66,2.21-1.05,4.08-2.15,5.6-3.3,1.52-1.15,2.84-2.26,3.95-3.31,1.1-1.05,2.05-1.92,2.84-2.6.79-.68,1.55-1.02,2.29-1.02,1.16,0,1.84.37,2.05,1.11.21.74.32,1.68.32,2.84v7.1Z"/>
    </g>
    <g class="cls-2">
      <path class="cls-1" d="M581.42,771.35c-1.68,0-2.53.95-2.53,2.84v4.1c0,4.21.52,8.03,1.58,11.44,1.05,3.42,2.53,6.34,4.42,8.76,1.89,2.42,4.16,4.29,6.79,5.6,2.63,1.32,5.47,1.97,8.52,1.97,2.53,0,4.66-.42,6.39-1.26,1.74-.84,3.24-1.76,4.5-2.76,1.26-1,2.31-1.92,3.16-2.76s1.63-1.26,2.37-1.26c.63,0,1.18.26,1.66.79.47.53.71,1.21.71,2.05,0,.95-.69,2.34-2.05,4.18-1.37,1.84-3.29,3.66-5.76,5.45-2.47,1.79-5.42,3.37-8.84,4.74-3.42,1.37-7.18,2.05-11.29,2.05-4.74,0-9.13-.92-13.18-2.76-4.05-1.84-7.53-4.44-10.42-7.81-2.9-3.37-5.16-7.39-6.79-12.08-1.63-4.68-2.45-9.81-2.45-15.39s.84-10.87,2.53-15.55c1.68-4.68,4.03-8.68,7.03-12,3-3.31,6.6-5.89,10.81-7.73,4.21-1.84,8.89-2.76,14.05-2.76,4.1,0,7.79.69,11.05,2.05,3.26,1.37,6.05,3.24,8.37,5.6,2.31,2.37,4.08,5.08,5.29,8.13,1.21,3.05,1.82,6.26,1.82,9.63,0,1.79-.45,3.03-1.34,3.71-.9.69-2.34,1.03-4.34,1.03h-32.04ZM598.78,763.39c2-1.09,3-3.1,3-6.03,0-3.13-.87-5.63-2.6-7.51-1.74-1.88-3.92-2.82-6.55-2.82-3.05,0-5.76,1.17-8.13,3.52-2.37,2.35-3.82,5.82-4.34,10.4l-.32,2.66v.31c0,.73.58,1.09,1.74,1.09h8.21c4,0,7-.55,9-1.64Z"/>
    </g>
    <g class="cls-2">
      <path class="cls-1" d="M712.91,751.94c-1.05.42-1.58,1-1.58,1.74,0,.21.1.53.32.95l12.47,18.78c.53.84,1,1.26,1.42,1.26.63,0,1.37-.58,2.21-1.74l2.53-3.63c1.05-1.58,1.58-3.52,1.58-5.84s-1.42-3.89-4.26-4.42c-1.37-.21-2.58-.37-3.63-.47-1.05-.1-1.58-.95-1.58-2.53,0-1.79,1.11-2.68,3.32-2.68.53,0,2.13.13,4.81.4,2.68.26,6.55.39,11.6.39,2.42,0,4.37-.08,5.84-.24,1.47-.16,2.63-.24,3.47-.24,1.58,0,2.37.74,2.37,2.21,0,1.05-.45,1.76-1.34,2.13-.89.37-2.13.95-3.71,1.74-1.58.79-3.42,2.03-5.53,3.71-2.11,1.68-4.37,4.26-6.79,7.73l-5.37,8.05c-.74,1.05-1.11,1.79-1.11,2.21,0,.63.26,1.37.79,2.21l7.89,12.31c2.53,3.89,4.79,6.71,6.79,8.45,2,1.74,3.71,3,5.13,3.79,1.42.79,2.5,1.34,3.24,1.66.74.32,1.11.95,1.11,1.89,0,1.68-1.32,2.53-3.95,2.53-1.79,0-3.84-.1-6.16-.32-2.32-.21-4.95-.32-7.89-.32-1.79,0-3.37.05-4.74.16-1.37.11-2.63.16-3.79.16-2.42,0-4.16-.63-5.21-1.89-1.05-1.26-2.32-3.1-3.79-5.53l-1.74-3c-1.05-1.68-1.74-2.53-2.05-2.53s-1,.42-2.05,1.26l-3.31,3c-2,1.79-3.89,3.42-5.68,4.89-1.79,1.48-3.63,2.74-5.53,3.79s-3.92,1.87-6.08,2.45c-2.16.58-4.61.87-7.34.87-6.74,0-12.18-2.58-16.34-7.73-4.16-5.16-6.24-12.1-6.24-20.84,0-6.31,1.52-11.65,4.58-16.02,3.05-4.37,7.73-8.08,14.05-11.13l3-1.42c1.37-.63,2.05-1.31,2.05-2.05,0-.21-.26-.95-.79-2.21l-2.21-4.58c-1.26-2.42-2.47-4.92-3.63-7.5-1.16-2.58-1.74-5.55-1.74-8.92s.66-6.31,1.97-9.16c1.31-2.84,3.16-5.26,5.53-7.26,2.37-2,5.21-3.58,8.52-4.74,3.31-1.16,6.97-1.74,10.97-1.74,7.89,0,14.1,1.68,18.63,5.05,4.52,3.37,6.79,8.05,6.79,14.05,0,4.84-1.1,8.66-3.31,11.44-2.21,2.79-5.79,5.34-10.73,7.66l-3.79,1.74ZM691.29,764.09c-.42,0-.84.21-1.26.63l-2.05,1.74c-1.68,1.47-3,3.31-3.95,5.52s-1.42,4.74-1.42,7.58.45,5.79,1.34,8.52c.89,2.74,2.1,5.13,3.63,7.18,1.52,2.05,3.31,3.68,5.37,4.89,2.05,1.21,4.18,1.82,6.39,1.82,1.89,0,3.58-.26,5.05-.79,1.47-.53,2.95-1.42,4.42-2.68l2.37-2.05c.21-.1.34-.32.39-.63.05-.32.08-.63.08-.95,0-.74-.16-1.26-.47-1.58l-18.63-28.57c-.32-.42-.74-.63-1.26-.63ZM697.92,728.1c0,1.79.37,3.79,1.1,6,.74,2.21,1.63,4.26,2.68,6.16,1.05,1.89,2.05,3.47,3,4.74s1.68,1.89,2.21,1.89c.74,0,1.55-.26,2.45-.79.89-.53,1.74-1.29,2.53-2.29.79-1,1.45-2.21,1.97-3.63.53-1.42.79-3.02.79-4.81,0-2.53-.32-4.81-.95-6.87-.63-2.05-1.42-3.84-2.37-5.37-.95-1.52-2.03-2.68-3.24-3.47-1.21-.79-2.34-1.18-3.39-1.18-4.53,0-6.79,3.21-6.79,9.63Z"/>
    </g>
    <g class="cls-2">
      <path class="cls-1" d="M292.7,903.79c-.63-.21-1.05-.32-1.26-.32-.63,0-.95.74-.95,2.21v29.83c0,2.32.4,4.05,1.18,5.21.79,1.16,2.13,1.89,4.03,2.21,1.79.32,3.08.58,3.87.79.79.21,1.18.95,1.18,2.21,0,2.42-1,3.63-3,3.63-.74,0-2.53-.21-5.37-.63-2.84-.42-6.95-.63-12.31-.63s-9.47.21-12.31.63c-2.84.42-4.63.63-5.37.63-2,0-3-1.16-3-3.47,0-1.16.34-1.89,1.03-2.21.68-.32,1.87-.63,3.55-.95,2.1-.42,3.55-1.11,4.34-2.05.79-.95,1.18-2.79,1.18-5.53v-71.51c0-2.31-.32-4.03-.95-5.13-.63-1.11-1.84-1.87-3.63-2.29-1.79-.42-3.16-.76-4.1-1.03-.95-.26-1.42-1.08-1.42-2.45,0-2.42,1.74-3.63,5.21-3.63,1.16,0,2.6.08,4.34.24,1.74.16,3.81.24,6.23.24,5.68,0,10.71-.1,15.08-.32,4.37-.21,8.08-.32,11.13-.32,9.89,0,17.36,2.45,22.42,7.34s7.58,11.92,7.58,21.07c0,4.63-.66,8.87-1.97,12.71-1.32,3.84-3.03,7.13-5.13,9.87-2.11,2.74-4.55,4.87-7.34,6.39-2.79,1.53-5.6,2.29-8.45,2.29-2.63,0-5.16-.53-7.58-1.58l-8.21-3.47ZM291.05,896.45c.68,1.74,2.66,2.6,5.92,2.6,4,0,7.18-1.79,9.55-5.37,2.37-3.58,3.55-8.68,3.55-15.31,0-3.58-.37-6.76-1.1-9.55-.74-2.79-1.74-5.13-3-7.02-1.26-1.89-2.71-3.34-4.34-4.34-1.63-1-3.29-1.5-4.97-1.5-2.84,0-4.66,1.03-5.45,3.08-.79,2.05-1.18,5.13-1.18,9.23v21c0,3.05.34,5.45,1.03,7.18Z"/>
    </g>
    <g class="cls-2">
      <path class="cls-1" d="M378.58,930.47c0,3.05.18,5.26.55,6.63.37,1.37,1.24,2.05,2.6,2.05.95,0,1.82-.42,2.6-1.26.79-.84,1.45-1.26,1.97-1.26.32,0,.71.26,1.18.79.47.53.71,1.21.71,2.05,0,.95-.47,2.13-1.42,3.55s-2.24,2.79-3.87,4.1c-1.63,1.32-3.48,2.45-5.53,3.39s-4.19,1.42-6.41,1.42c-2.75,0-4.83-.92-6.26-2.76-1.43-1.84-2.93-4.87-4.51-9.08h-.63c-4.33,4-8.29,7-11.88,9s-6.7,3-9.34,3c-4.01,0-7.18-1.5-9.5-4.51-2.32-3-3.48-6.88-3.48-11.63,0-2.85.39-5.35,1.18-7.52.79-2.16,2-4.17,3.63-6.01,1.63-1.84,3.66-3.59,6.08-5.22,2.42-1.63,5.26-3.35,8.52-5.14l12.63-6.96c1.05-.63,1.58-1.95,1.58-3.95v-10.13c0-6.12-1.58-9.17-4.74-9.17-1.16,0-2.16.32-3,.95-.84.63-1.61,1.45-2.29,2.45-.69,1-1.37,2.19-2.05,3.55-.69,1.37-1.4,2.79-2.13,4.26-3.16,6.21-7.89,9.31-14.21,9.31-3.16,0-4.74-1.52-4.74-4.58,0-2.31.81-4.79,2.45-7.42,1.63-2.63,3.79-4.99,6.47-7.08,2.68-2.09,5.81-3.83,9.39-5.21,3.58-1.38,7.31-2.08,11.21-2.08,7.3,0,12.99,1.63,17.08,4.89,4.08,3.26,6.13,7.89,6.13,13.89v35.68ZM358.06,911.53c-.42,0-.9.21-1.42.63l-4.42,2.84c-6.53,4.32-9.79,9.21-9.79,14.68,0,2.74.66,4.95,1.97,6.63,1.31,1.68,3.08,2.53,5.29,2.53,2.95,0,5.23-1.1,6.87-3.31,1.63-2.21,2.45-5.58,2.45-10.1v-12c0-1.26-.32-1.89-.95-1.89Z"/>
    </g>
    <g class="cls-2">
      <path class="cls-1" d="M429.88,942.62c-4.42,11.47-7.47,20.1-9.16,25.89-1.68,5.79-2.68,9.05-3,9.79-.95,2.21-2.13,3.68-3.55,4.42-1.42.74-3.61,1.11-6.55,1.11-3.69,0-6.1-.66-7.26-1.97-1.16-1.32-1.74-3.76-1.74-7.34,0-3.37.47-5.84,1.42-7.42.95-1.58,2.79-2.37,5.52-2.37.95,0,1.84.02,2.68.08.84.05,1.63.08,2.37.08,1.26,0,2.42-.34,3.47-1.03,1.05-.69,1.92-1.55,2.6-2.6.68-1.05,1.21-2.24,1.58-3.55.37-1.32.55-2.55.55-3.71,0-1.37-.21-2.82-.63-4.34-.42-1.52-1-3.18-1.74-4.97l-20.99-53.36c-.84-2.1-1.84-3.58-3-4.42-1.16-.84-2.29-1.45-3.39-1.82-1.11-.37-2.05-.71-2.84-1.03-.79-.32-1.18-1.11-1.18-2.37,0-1.79.95-2.68,2.84-2.68.73,0,2.26.13,4.58.39,2.31.26,5.52.39,9.63.39,5.79,0,10.26-.1,13.42-.32,3.16-.21,5-.32,5.52-.32,1.05,0,1.87.13,2.45.39.58.26.87.92.87,1.97,0,1.37-.42,2.24-1.26,2.61-.84.37-1.79.63-2.84.79-1.05.16-2,.42-2.84.79-.84.37-1.26,1.18-1.26,2.45,0,.63.58,2.58,1.74,5.84l11.05,30.62c.32.74.68,1.11,1.1,1.11s.79-.47,1.1-1.42l8.84-24.94c.84-2.1,1.39-3.92,1.66-5.45.26-1.52.4-2.71.4-3.55,0-1.79-.5-3-1.5-3.63-1-.63-2.13-1.11-3.39-1.42-1.26-.32-2.4-.66-3.39-1.03-1-.37-1.5-1.24-1.5-2.6,0-1.16.21-1.92.63-2.29.42-.37,1.1-.55,2.05-.55.63,0,1.87.13,3.71.4,1.84.26,4.34.39,7.5.39,2.94,0,5.42-.08,7.42-.24,2-.16,3.52-.24,4.58-.24.84,0,1.45.13,1.82.39.37.26.55.92.55,1.97,0,.84-.13,1.48-.39,1.89-.26.42-.61.74-1.03.95-.42.21-.9.37-1.42.47-.53.11-1,.21-1.42.32-3.05,1.16-5.68,4.47-7.89,9.95l-18.47,47.51Z"/>
    </g>
    <g class="cls-2">
      <path class="cls-1" d="M495.94,876.8c2.79.53,5.18,1.21,7.18,2.05,1.47.53,2.37,1.16,2.68,1.89.32.74.47,1.89.47,3.47,0,1.79-.03,3.32-.08,4.58s-.08,2.26-.08,3c0,2.53-.89,3.79-2.68,3.79-1.16,0-2.19-.74-3.08-2.21-.9-1.47-1.92-3.1-3.08-4.89-1.16-1.79-2.55-3.42-4.18-4.89-1.63-1.47-3.71-2.21-6.24-2.21-3.05,0-5.47.76-7.26,2.29-1.79,1.53-2.68,3.45-2.68,5.76,0,1.58.39,2.9,1.18,3.95.79,1.05,1.84,2.03,3.16,2.92,1.31.9,2.92,1.76,4.81,2.6,1.89.84,3.95,1.74,6.16,2.68,2.94,1.26,5.52,2.63,7.73,4.1,2.21,1.47,4.05,3.11,5.53,4.89,1.47,1.79,2.6,3.87,3.39,6.24.79,2.37,1.19,5.08,1.19,8.13,0,4-.69,7.66-2.05,10.97-1.37,3.31-3.34,6.16-5.92,8.52-2.58,2.37-5.66,4.24-9.23,5.6-3.58,1.37-7.58,2.05-12,2.05-6.1,0-11.03-1-14.76-3-3.74-2-5.6-4.52-5.6-7.58,0-5.68.21-9.76.63-12.23.42-2.47,1.21-3.71,2.37-3.71.84,0,1.5.29,1.97.87.47.58.92,1.37,1.34,2.37.42,1,.87,2.19,1.34,3.55.47,1.37,1.13,2.84,1.97,4.42,3.26,6.31,7.79,9.47,13.58,9.47,3.37,0,6.16-.99,8.37-2.98,2.21-1.99,3.32-4.35,3.32-7.07,0-1.67-.21-3.09-.63-4.24-.42-1.15-1.1-2.2-2.05-3.14-.95-.94-2.16-1.83-3.63-2.67-1.48-.84-3.21-1.73-5.21-2.67-3.05-1.57-5.95-3.04-8.68-4.4-2.74-1.36-5.13-2.91-7.18-4.64-2.05-1.73-3.69-3.77-4.89-6.13-1.21-2.36-1.82-5.37-1.82-9.04,0-6.91,2.31-12.52,6.95-16.81,4.63-4.3,11-6.44,19.1-6.44,2.94,0,5.81.26,8.6.79Z"/>
    </g>
    <g class="cls-2">
      <path class="cls-1" d="M570.53,930.47c0,3.05.18,5.26.55,6.63.37,1.37,1.24,2.05,2.6,2.05.95,0,1.82-.42,2.61-1.26.79-.84,1.45-1.26,1.97-1.26.32,0,.71.26,1.18.79.47.53.71,1.21.71,2.05,0,.95-.47,2.13-1.42,3.55s-2.24,2.79-3.87,4.1c-1.63,1.32-3.48,2.45-5.53,3.39-2.06.95-4.19,1.42-6.41,1.42-2.75,0-4.83-.92-6.25-2.76s-2.93-4.87-4.51-9.08h-.63c-4.33,4-8.29,7-11.88,9s-6.7,3-9.34,3c-4.01,0-7.18-1.5-9.5-4.51-2.32-3-3.48-6.88-3.48-11.63,0-2.85.39-5.35,1.18-7.52.79-2.16,2-4.17,3.63-6.01,1.63-1.84,3.66-3.59,6.08-5.22,2.42-1.63,5.26-3.35,8.52-5.14l12.63-6.96c1.05-.63,1.58-1.95,1.58-3.95v-10.13c0-6.12-1.58-9.17-4.74-9.17-1.16,0-2.16.32-3,.95-.84.63-1.61,1.45-2.29,2.45-.69,1-1.37,2.19-2.05,3.55-.69,1.37-1.4,2.79-2.13,4.26-3.16,6.21-7.89,9.31-14.21,9.31-3.16,0-4.74-1.52-4.74-4.58,0-2.31.81-4.79,2.45-7.42,1.63-2.63,3.79-4.99,6.47-7.08,2.68-2.09,5.81-3.83,9.39-5.21,3.58-1.38,7.31-2.08,11.21-2.08,7.3,0,12.99,1.63,17.08,4.89,4.08,3.26,6.13,7.89,6.13,13.89v35.68ZM550.01,911.53c-.42,0-.9.21-1.42.63l-4.42,2.84c-6.53,4.32-9.79,9.21-9.79,14.68,0,2.74.66,4.95,1.97,6.63,1.31,1.68,3.08,2.53,5.29,2.53,2.94,0,5.23-1.1,6.87-3.31,1.63-2.21,2.45-5.58,2.45-10.1v-12c0-1.26-.32-1.89-.95-1.89Z"/>
    </g>
    <g class="cls-2">
      <path class="cls-1" d="M643.77,881.69c.21,0,.45-.02.71-.08.26-.05.55-.08.87-.08,1.79,0,2.97.42,3.55,1.26.58.84.87,3,.87,6.47,0,.84-.69,1.26-2.05,1.26-.63,0-1.16-.02-1.58-.08-.42-.05-.74-.08-.95-.08-1.37,0-3,.16-4.89.47,1.89,4,2.84,7.95,2.84,11.84,0,7.47-2.63,13.5-7.89,18.07-5.26,4.58-12.47,6.87-21.63,6.87-.53,0-1.1-.02-1.74-.08-.63-.05-1.26-.08-1.89-.08-1.47,0-2.58.34-3.31,1.03-.74.69-1.11,1.55-1.11,2.61,0,1.47,1.03,2.47,3.08,3,2.05.53,5.08.9,9.08,1.1,4.95.21,9.34.66,13.18,1.34,3.84.69,7.08,1.79,9.71,3.32,2.63,1.53,4.63,3.55,6,6.08,1.37,2.53,2.05,5.73,2.05,9.63,0,3.58-.9,7.08-2.68,10.5-1.79,3.42-4.34,6.44-7.66,9.08-3.31,2.63-7.26,4.74-11.84,6.31-4.58,1.58-9.6,2.37-15.08,2.37-4.42,0-8.42-.53-12-1.58-3.58-1.05-6.63-2.45-9.16-4.18s-4.47-3.74-5.84-6c-1.37-2.26-2.05-4.6-2.05-7.02s.63-4.4,1.89-5.92c1.26-1.53,3-3.08,5.21-4.66l5.68-4.1c1.26-.74,1.89-1.31,1.89-1.74,0-.53-.26-1.05-.79-1.58l-2.53-2.68c-4.63-4.84-6.95-8.26-6.95-10.26,0-1.16.5-2,1.5-2.53,1-.53,2.34-1.21,4.03-2.05l6.31-3c1.16-.53,1.74-.89,1.74-1.11,0-.32-.42-.79-1.26-1.42l-2.37-1.74c-3.58-2.63-6.29-5.45-8.13-8.45-1.84-3-2.76-6.97-2.76-11.92,0-3.58.68-6.95,2.05-10.1,1.37-3.16,3.29-5.92,5.76-8.29,2.47-2.37,5.42-4.24,8.84-5.6,3.42-1.37,7.18-2.05,11.29-2.05s7.63.39,10.26,1.18c2.63.79,5.31,1.92,8.05,3.39.84.42,1.63.84,2.37,1.26.74.42,1.84.63,3.32.63.32,0,.6-.03.87-.08.26-.05.55-.08.87-.08l4.26-.47ZM631.93,959.12c-1.05-1.21-2.53-2.08-4.42-2.6-1.89-.53-4.13-.84-6.71-.95-2.58-.11-5.45-.21-8.6-.32-1.68,0-3.18-.24-4.5-.71-1.32-.47-2.45-.97-3.39-1.5-.95-.53-1.71-1-2.29-1.42-.58-.42-1.03-.63-1.34-.63-.63,0-1.53,1.03-2.68,3.08-1.16,2.05-1.74,4.44-1.74,7.18,0,4.95,1.68,8.97,5.05,12.08,3.37,3.1,7.94,4.66,13.73,4.66s10.18-1.37,13.5-4.1c3.31-2.74,4.97-5.95,4.97-9.63,0-2.21-.53-3.92-1.58-5.13ZM606.75,886.35c-2.05,3.53-3.08,8.44-3.08,14.76s1.03,11.26,3.08,14.84c2.05,3.58,4.66,5.37,7.81,5.37s5.6-1.76,7.66-5.29c2.05-3.53,3.08-8.5,3.08-14.92s-1.03-11.37-3.08-14.84c-2.05-3.47-4.61-5.21-7.66-5.21s-5.76,1.76-7.81,5.29Z"/>
    </g>
    <g class="cls-2">
      <path class="cls-1" d="M677.08,906.16c-1.68,0-2.53.95-2.53,2.84v4.1c0,4.21.52,8.03,1.58,11.44,1.05,3.42,2.53,6.34,4.42,8.76,1.89,2.42,4.16,4.29,6.79,5.6,2.63,1.32,5.47,1.97,8.52,1.97,2.53,0,4.66-.42,6.39-1.26,1.74-.84,3.24-1.76,4.5-2.76,1.26-1,2.31-1.92,3.16-2.76s1.63-1.26,2.37-1.26c.63,0,1.18.26,1.66.79.47.53.71,1.21.71,2.05,0,.95-.69,2.34-2.05,4.18-1.37,1.84-3.29,3.66-5.76,5.45-2.47,1.79-5.42,3.37-8.84,4.74-3.42,1.37-7.18,2.05-11.29,2.05-4.74,0-9.13-.92-13.18-2.76-4.05-1.84-7.53-4.44-10.42-7.81-2.9-3.37-5.16-7.39-6.79-12.08-1.63-4.68-2.45-9.81-2.45-15.39s.84-10.87,2.53-15.55c1.68-4.68,4.03-8.68,7.03-12,3-3.31,6.6-5.89,10.81-7.73,4.21-1.84,8.89-2.76,14.05-2.76,4.1,0,7.79.69,11.05,2.05,3.26,1.37,6.05,3.24,8.37,5.6,2.31,2.37,4.08,5.08,5.29,8.13,1.21,3.05,1.82,6.26,1.82,9.63,0,1.79-.45,3.03-1.34,3.71-.9.69-2.34,1.03-4.34,1.03h-32.04ZM694.45,898.2c2-1.09,3-3.1,3-6.03,0-3.13-.87-5.63-2.6-7.51-1.74-1.88-3.92-2.82-6.55-2.82-3.05,0-5.76,1.17-8.13,3.52-2.37,2.35-3.82,5.82-4.34,10.4l-.32,2.66v.31c0,.73.58,1.09,1.74,1.09h8.21c4,0,7-.55,9-1.64Z"/>
    </g>
  </g>
  <path class="cls-1" d="M827.01,701.81l-8.51-1.7.26-.75c.73-2.18,18.11-53.46,35.69-59.66l1.84-.65-1.02,1.67c-8.78,14.42-24.3,40.91-28.78,51.77,9.37-13.21,42.18-57.11,62.57-52.81l1.47.3-1.18.93c-17.54,13.74-62.94,51.31-62.39,60l.05.9ZM820.33,699.05l5.29,1.06c2.02-11.74,52.57-52.16,61.58-59.29-.34-.03-.68-.04-1.03-.04-22.95,0-60.66,55.52-61.05,56.11l-1.39,2.06.12-2.48c.31-6.54,23.47-45.27,29.07-54.54-15.2,8.45-30.44,50.95-32.59,57.13ZM521.59,701.65l-.17-.09c-.74-.41-17.72-10.04-23.41-24.61l-17.62,24.22h-.37s-44.91-1.24-44.91-1.24l1.63-1.2c.49-.36,46.49-34.87,39.26-81.59.29,15.94-2.95,48.63-31.88,65.31l-30.32,19.21h-.21s-48.22-1.01-48.22-1.01l3.09-1.27c12.49-5.13,45.05-19.51,48.05-25.32-6.48,3.16-40.79,18.93-77.15,16.32l-39.8,11.27h-15.75l8.87-8.16c.21-.09,21.58-8.52,32.44-15.57.44-.24,9.86-5.11,38.33-10.03.58-.07,53.28-6.01,71.64-37.29,8.55-14.58,8.41-32.47-.42-53.17-.08-.3-4.88-19.86-19.93-37.77-13.84-16.46-39.45-34.83-82.85-29.12l-13.35,12.5,18.62-10.38-.11,1.3c-2.93,35.22-44.39,35.58-45.55,35.58h-.75s.04-.73.04-.73c.84-14.41,5.45-25.16,13.72-31.94,11.15-9.16,25-7.92,26.96-7.7l9.46-4.6c-6.39-2.59-33.26-12.44-51.71-3.28l-3.25,1.61,8.18-9.12-22.68-8.85-.22.14c-27.84,17.81-51.84-17.86-52.08-18.22l-.43-.66.71-.35c32.9-16.3,51.83,12.83,52.02,13.12l.75,1.19-19.84-1.71,20.17,5.8-.69.44,33.63,4.63-8.42-15.66,3.56,3.73c.13.14,13.74,14.03,46.58,16.08l-5.31-11.95,3.27,4c.06.07,5.67,6.82,15.04,8.58.51.02,12.33.73,20.09,4.51-4.98-6.42-15.81-21.62-21.26-38.59-.11-.43-10.42-38.99-40.09-38.99h-2.3l4.57-3.05c-6.45-2.14-35.54-10.63-61.01.44l-1.03.45.05-1.12c.02-.33.55-7.32,15.39-10.06-8.14-1.03-22.78-3.68-33.31-10.11l-2.58-1.58,27.67,2.67c-1.92-2.5-5.63-8.11-4.61-12.87l.42-1.97.88,1.81c.06.13,6.53,12.89,28.36,16.6.96.04,24.05,1.18,33.14,5.26-1.43-4.7-5.98-18.6-10.65-20.93l-.57-.29,1.55-3.91.56.1c.45.08,4.65,1.3,14.28,18.74.07.08,11.12,14.75,17.3,18.74-.91-6.77-6.17-38.03-28.42-66.33l-13.05-14.2.98-.98c4.92,4.57,9.27,9.37,13.12,14.26l23.59,25.66,2.78-22.77.79,4.81c.14.85,13.83,83.54,29.89,102.24l1.23-80.97,1.39-.05c.71,8.66,2.88,30.59,4.96,36.65l10.54-21.79-3.5,30.41,4.73-.73-.88,1.32c-.28.42-27.36,42.62,38.36,94.47,1.17-8.23,9.37-55.55,46.08-76.69.31-.27,40.67-33.99,37.92-64.31-1.07-11.82-8.58-21.7-22.32-29.38l-1.12-.62,6.44-3.41-31.19-24.82c-4.51,2.14-45.45,20.55-70.28-2.89l-.49-.46.45-.5c.17-.19,17.24-19.04,38.56-19.04h.25c11.69.08,22.51,5.75,32.13,16.84l1.05,1.21-26.28-1.03,22.13,3.89-1.09-.87,3.84,1.35,2.01.35-.44.22c6.01,2.26,27.79,11.03,39.18,23.39-10.78-19.34-41.83-59.93-112.67-60.48h-1.81s7.19-6.4,7.19-6.4c-4.81-2.22-26.67-12.15-40.85-15.7l-21.66-.95,16.68-3.71-34.06-20.71-12.33-.89,4.55-2.72-24.72-14.13.58-1.26,29.24,10.34v-11.44l-.11.44-11.34-16.04,9.1,19.77-1.63-.66c-.34-.14-33.92-14.25-27.65-50.79l.11-.67.67.1c.18.02,18.52,2.81,27.64,16.49,5.39,8.09,6.56,18.3,3.46,30.34l-.03.1,1.12,3.17c.04.11,4.29,11.4,31.36,23.43l-.31-14.22c-.08-1.04-.04-1.65-.03-1.68l1.39.04.04,1.68c.45,5.63,4.64,24.68,40.14,34.21v-4.25l1.38-.12c.02.07,3.55,10.5,69.18,25.99-1.87-4.37-9.47-19.18-27.07-20.36l-.52-.03h0l-.79-.04h0c-26.2-2-34.7-25.52-34.78-25.76l-.28-.81.85-.11c27.77-3.63,34.18,17.86,34.23,18.08l.33,1.17-7.29-1.93,8.7,3.98,9.39,1.82-22.28-26.45c-5.41-6.15-11.67-12.95-12.6-13.41l-2.45-.87,5.86-1.06-12.98-41.44-10.23-14.25,10.3,5.82,1.72-13.73,22.31,65.38c.09.14,14.7,25.52,26.87,31.6l.21.17c.9,1.03,21.77,25.1,23.64,33.18l11.42,9.57c-3.17-8.68-13.37-37.68-13.84-52.95l-12.84-8.89,13.2,3.91v-26.46l-9.83-16.98,10.68,8.45,2.3-27.6-8.71-22.24,10.94,13.13,4.19-30.44,1.39.08,1.05,39.55,15.53-20.85-2.66,5.88c-.24.54-24.02,53.93-8.04,97.68,2.87-8.41,15.37-43.04,31.13-57.59l16.68-28.27-17.58,18.56-.12-1.55c-.03-.4-2.73-39.71,40.43-47.45l.62-.11.17.6c.12.41,11.34,41.57-39.25,59.27-2.59,3.05-46.3,56.04-3.12,113.26-1.96-10.82-7.58-48.56,6.24-64.29l1.84-2.1-.64,2.72c-.08.34-7.82,33.66-.05,56.04,1.01-3.3,3.43-9.58,8.05-12.92l8.49-13.91-9.18,12.19-.3-1.52c-7.21-36.03,30.69-50.04,31.07-50.17l.7-.25.2.72c10.78,38.35-25.68,52.48-29.87,53.96-.88,3.97-8.11,38.12-.08,46.81l.12.19c.24.55,21.42,50.08-3.12,88.84,13.69-15.47,36.02-45.44,27.58-68.46l1.25-.59c.34.57,7.54,13.05,5.63,22.92,6.6-6.96,27.59-31.67,19.96-57.31l-.75-2.52v.9l-1.15-.99c-9.96-8.6-15.2-18.15-15.56-28.39-.58-16.39,11.81-28.92,11.94-29.05l.43-.43.48.37c9.86,7.48,15.53,16.35,16.85,26.37,2.21,16.68-8.61,30.88-8.73,31.03l-1,1.29-3.27-22.07v20.8l1.92,2.01c.3.32,6.86,7.35,6.33,20.22,6.11-11.32,27.09-56.63,1.01-104.37l-1.47-2.7,7.89,5.7c-1.53-19.57-5.73-66.26-8.58-70.24l1.06-.9c.21.21,5.15,5.38,9.15,28.72l6.34-7.3,11.32-20.24-14.21,19.59-.3-1.58c-2.85-14.8-.67-27.23,6.47-36.95,12.32-16.76,35.51-19.56,35.74-19.59l.65-.07.11.64c7.34,41.93-33.88,57.49-38.58,59.11-.48,3.97-3.94,34.45,1.14,54.11.09.29,10.03,31.53,6.96,55.46l20.8-22.16c.7-2.82,7.94-31.89,13.31-39.42l1.56-2.19-3.43,29.78c3.89-2.96,15.69-12.59,21.68-24.55l1.82-3.63-1.82,14.52c3.82-1.79,16.21-7.1,27.52-6.5l3.27.18-3.06,1.16c-.51.19-49.17,18.93-57.8,41.38,2.53-1.48,7.71-3.63,15.25-2.64l25.27-3.71-28.02.54.91-1.15c.11-.14,11.66-14.48,30.33-16.51,13.03-1.42,26.37,3.36,39.63,14.2l.56.45-.47.54c-.3.34-30.16,33.75-68.34,7.1-3,.85-28.05,8.85-38.56,41.76-.44.87-39.32,75.14-64.93,98.66,10.6-.74,61.02-6.57,74.27-50.52l1.01-3.35.35,3.48s.08.92.09,2.41v-.04s6.72-25.53,6.72-25.53l-10.99,22.88-.63-1.28c-17.46-35.19,21.66-59.97,22.05-60.21l.65-.4.34.68c21.85,43.69-16.74,64.45-17.13,64.65l-1.01.53c-.14,6.57-1.73,20.55-12.01,30.79,9.13-2.37,40.73-13.1,52.13-50.08l.79-2.57-.5-.68c-5.91-7.99-8.24-16.23-6.93-24.51,2.39-15.1,15.89-24.88,16.47-25.29l.57-.41.4.57c15.9,22.59-2.68,39.51-2.87,39.67l-1.07.95-.86-14.29-4.78,24.57-.11-.14,1.16,11.22,24.21-30.46-15,30.86,5.51-1.27-40.2,44.66,30.31,1.05c6.57-3.72,23.1-14.4,23.39-20.67l1.39-.02c.03.37.57,9.02-11.04,19.96h11.65c1.6-.79,14.39-6.99,21.5-6.99h2.3l-12.47,8.32,17.01,1.94-48.95,5.66,7.44,6.41c40.51,1.69,47.43,39.84,47.5,40.22l.12.69-.69.12c-16.08,2.69-28.45.27-36.77-7.18-11.96-10.71-11.14-28.31-11.13-28.49l.08-1.34,14.03,11.13-12.39-12.45c-2.97-1.13-16.78-6.18-24.07-4.89h-22.2s13.99,17.27,13.99,17.27l-4.85-3.8c-5.13-4.02-19.49-13.95-24.29-11.69l-31.38,6.65,20.99,11.17c13.59,1.2,23.34,6.06,28.97,14.42,9.65,14.33,3.84,33.63,3.59,34.44l-.19.61-.63-.14c-22.84-5.22-27.25-37.26-27.3-37.58l-.23-1.81,7.91,6.85-12.69-15.47-11.81-2.02v3.27c7.93,4.4,12.91,10.5,14.81,18.15,4.19,16.84-7.79,35.13-8.31,35.9l-.38.57-.58-.37c-12.88-8.28-20.01-17.76-21.18-28.19-1.64-14.65,9.01-25.68,9.46-26.14l.93-.94,3.84,19.7v-17.95c-2.46-2.01-24.54-18.65-62.64.3-.42.21-42.12,21.38-51.25,60.61-5.58,23.98,1.97,49.75,22.44,76.57.43.64,40.73,60.1,81.14,67.38,2-.17,32.9-2.28,61.37,19.4l29.84,10.32-11.63,8.5-.32-.08-66.32-16.91,14.78,17.53-2.19-.62c-2.91-.83-63.43-18.27-88.59-40.8l27.52,40.77-40.43,1.73ZM287.37,700.25h12.1l39.75-11.28h.12c39.79,2.87,77.25-16.49,77.62-16.69l.63-.33.32.64c.25.51.26,1.09.02,1.71-2.41,6.37-35.03,20.53-45.89,25.1l41.36.86,29.99-19c38.15-21.99,30.66-72.57,30.58-73.07l1.35-.3c13.91,47.02-27.63,83.77-36.24,90.77l40.6,1.11,18.75-25.77.43,1.27c4.75,14,21.22,23.92,23.06,24.99l37.55-1.61-30.79-45.62c-.91-1.17-1.71-2.35-2.39-3.54l1.18-.73,2.31,3.43c17.62,22.61,78.99,42.01,91.46,45.78l-14.62-17.33,70.2,17.9,8.96-6.55-27.63-9.59c-28.86-22.05-60.27-19.22-60.58-19.18h-.1s-.1,0-.1,0c-41.01-7.31-81.71-67.35-82.12-67.96-20.71-27.14-28.34-53.3-22.66-77.71,9.28-39.87,51.56-61.31,51.98-61.53,35.97-17.89,58.1-4.59,63.25-.81v-3.91l9.43,1.62-20.68-11.01,34.98-7.39c4.63-2.18,15.1,4.37,21.17,8.64l-8.51-10.49h25c6.12-1.06,16.25,1.99,21.65,3.86l-8.96-7.72,40.08-4.64-8.76-1,11.44-7.63c-7.41,1.23-18.23,6.61-18.36,6.67l-.31.07h-15.44l1.37-1.22c6.61-5.85,9.56-11.12,10.87-14.79-5.99,7.68-21.05,16.21-21.84,16.65l-.17.1h-.2s-33.49-1.17-33.49-1.17l39.25-43.61-4.05.93,10.74-22.1-18.46,23.23-.95-9.13c-14.53,41.29-54.3,48.44-54.71,48.51l-2.46.42,1.89-1.63c11.36-9.78,13.25-24.19,13.45-31.1-16.99,46.16-75.64,47.75-76.24,47.76l-1.93.04,1.47-1.26c25.35-21.73,65.64-98.69,66.05-99.47,9.02-28.23,28.66-38.49,36.5-41.54h-.26c-7.92,0-12.31,3.72-12.36,3.77l-1.74,1.51.61-2.22c5.73-20.69,44.15-38.02,55.93-42.89-11.93.6-24.27,6.84-24.41,6.91l-1.17.6,1.19-9.47c-7.86,13.09-21.49,22.7-21.64,22.81l-1.27.88,3.1-26.89c-5.17,10.52-11.42,35.98-11.49,36.26l-.04.18-24.13,25.71.37-2.26c3.97-23.83-6.49-56.72-6.6-57.05-4.67-18.06-2.25-44.98-1.39-52.86l-6.85,7.88-.24-1.46c-2.04-12.42-4.37-19.86-6.15-24.14,3.38,17.42,6.99,63.96,7.16,66.28l.12,1.5-5.42-3.92c27.95,54.63-3.67,105.32-4,105.84l-1.66,2.6.38-3.06c1.15-9.22-1.57-15.81-3.63-19.32,5.94,29.59-22.85,56.78-23.16,57.07l-2.3,2.14,1.19-2.91c2.29-5.61.24-13.07-1.83-18.26,4.36,32.22-37.45,71.68-39.35,73.46l-.98-.99c36.41-38.17,12.86-95.64,11.68-98.45-7.78-8.67-2.21-38.31-.52-46.37-4.82,4.65-6.65,12.94-6.67,13.03l-.48,2.22-.85-2.1c-7.61-18.88-3.18-46.75-1.4-55.88-12.75,19.14-3.63,63.11-3.53,63.57l.61,2.89-1.84-2.31c-33.8-42.56-19.51-83.15-7.92-103.64-12.36,19.11-20.94,45.71-21.04,46.04l-.59,1.86-.71-1.82c-14.46-36.76-.27-80.83,5.33-95.54l-10.84,14.55-.93-35.09-3.47,25.16-7.46-8.95,5.7,14.54-2.55,30.51-6.98-5.53,6.36,10.98v28.7l-6.66-1.97,6.28,4.35v.36c.37,17.33,14.54,54.93,14.68,55.31l.94,2.49-15.84-13.27-.05-.24c-1.37-7.21-21.76-30.91-23.29-32.67-12.52-6.37-26.79-31.15-27.39-32.21l-20.42-59.8-1.23,9.81-6.61-3.74,6.71,9.4,13.48,43.05-3.35.61c3.01,2.79,9.55,10.17,11.8,12.74l24.82,29.47-12.65-2.45-.47,2.59c21.31,1.58,28.46,22.28,28.53,22.49l.39,1.18-1.21-.29c-52.29-12.24-66.36-21.44-70.15-25.35v3.88l-.87-.23c-27.89-7.27-37.34-20.37-40.51-29.01l.21,9.55-1-.43c-21.12-9.21-29.01-18-31.76-22.18v8.17l-23.8-8.42,20.07,11.47-2.81,1.68,8.41.68,37.16,22.6-9.8,2.18,11.3.5c16.2,4.04,41.95,16.13,42.2,16.25l.95.45-6.07,5.39c85.06,1.48,112.54,60.54,116.44,70.13.18.42.35.85.49,1.28,0,.01,0,.02,0,.02l-1.31.45s0-.03-.01-.04c-.04-.12-.18-.5-.42-1.09-6.05-14.38-31.17-25.81-41.26-29.91l29.64,23.58-6.07,3.21c13.46,7.83,20.83,17.86,21.92,29.84,2.81,31.05-36.83,64.17-38.52,65.57-39.56,22.79-45.59,76.39-45.65,76.93l-.13,1.25-.99-.77c-61.47-47.93-44.44-88.18-40.37-95.8l-3.55.55,2.77-24.08-8.13,16.8-.68-.98c-1.76-2.54-3.47-15.75-4.56-26.02l-1.09,71.71-1.15-1.11c-14.81-14.26-27.39-80.98-30.65-99.55l-1.98,16.21-17.86-19.43c19.2,29.34,22.14,58.68,22.18,59.06l.11,1.19-1.09-.49c-6.16-2.8-18.51-19.2-19.03-19.89-7.42-13.44-11.5-16.96-12.87-17.85l-.61,1.54c5.92,3.91,11.05,22.23,11.27,23.04l.47,1.7-1.5-.92c-7.41-4.52-33.79-5.83-34.06-5.84-17.69-3-25.54-11.56-28.27-15.44.42,5.13,5.42,10.81,5.47,10.88l1.18,1.32-24.8-2.39c14.91,7.69,35.65,8.89,35.87,8.9l.02,1.39c-14.61,1.22-18.65,5.98-19.75,8.28,28.89-11.73,61.64.44,61.98.57l1.26.48-3.14,2.09c29.06,1.82,39.13,39.54,39.23,39.93,7.08,22.06,23.42,41.12,23.59,41.31l-.97.99c-6.55-5.48-22.79-6.45-22.95-6.45-6.12-1.15-10.65-4.2-13.29-6.45l2.65,5.96-1.14-.06c-25.91-1.39-40.13-9.81-45.77-14.1l5.5,10.23-26.25-3.61,14.77,5.76-4.97,5.54c21.37-8.17,50.07,4.57,51.33,5.15l1.35.61-8.66,4.21c81.15-8.29,100.22,67.49,100.4,68.28,8.98,21.03,9.1,39.34.3,54.32-18.71,31.88-72.1,37.9-72.64,37.95-28.15,4.87-37.73,9.81-37.82,9.86-10.49,6.82-30.74,14.92-32.51,15.62l-5.96,5.52ZM328.11,510.41c-5.02,0-14.72.97-22.73,7.55-7.8,6.41-12.22,16.57-13.15,30.18,5.49-.18,39.82-2.53,43.31-32.98l-26.24,14.63,20.22-18.92-2.13.28,1.52-.73c-.25,0-.52,0-.8,0ZM603.19,458.14c-2.55,3.04-9.46,12.48-8.16,24,1.11,9.83,7.82,18.83,19.95,26.78,2-3.26,11.38-19.61,7.75-34.22-1.75-7.04-6.28-12.71-13.46-16.88v24.28l-1.38.13-4.7-24.08ZM627.8,467.11c1.31,6.78,7.04,29.7,25.26,34.36.91-3.44,4.73-20.27-3.6-32.63-4.9-7.27-13.11-11.78-24.45-13.41l.58.3-2.42-.41,16.84,20.54-.99.97-11.22-9.72ZM220.79,466.73c3.33,4.64,24.31,31.92,48.38,17.98l-24.04-6.92.25-1.36,24.09,2.08c-3.85-5.27-20.76-25.1-48.68-11.78ZM693.12,443.06c.08,4.28,1.14,17.46,10.68,25.99,7.87,7.04,19.6,9.37,34.89,6.95-1.12-5.02-9.37-35.82-44.26-38.28l3.45,2.97-1.19-.48,18.48,18.58-.92,1.04-21.14-16.77ZM641.88,352.96l1.3.48-8.13,30.95c6.77-4.12,33.88-23.54,15.46-61.28-4.9,3.32-35.71,25.77-21.52,56.69l12.89-26.83ZM683.46,316.2c-2.59,2.03-13.32,11.14-15.34,23.96-1.18,7.45.76,14.89,5.75,22.15l6.26-32.22,1.34,22.29c3.64-3.86,14.49-17.82,2-36.19ZM400.62,319.3c22.35,20.38,57.83,6.75,66.6,2.91l-32.76-5.76.15-1.38,33.32,1.3c-9.08-9.98-19.17-15.07-30.01-15.15h-.24c-18.78,0-34.21,15.12-37.05,18.08ZM584.92,268.27c-2.12,2.31-11.62,13.49-11.11,27.58.34,9.43,5.02,18.29,13.93,26.35v-28.25l1.38-.1,4.16,28.06c2.58-3.91,9.2-15.48,7.46-28.59-1.26-9.47-6.58-17.89-15.82-25.05ZM663.03,292.91c33.98,22.69,60.88-3.07,64.81-7.16-12.76-10.25-25.53-14.79-38-13.43-14.99,1.62-25.25,11.44-28.39,14.84l35.95-.7.11,1.38-34.48,5.07ZM553.39,267.33l1.15.78-14.98,24.53c7.81-3.03,36.85-16.78,27.71-51-5.01,2.05-34.91,15.71-29.75,46.77l15.87-21.08ZM403.55,238.68c1.74,4.1,10.75,22.37,33.39,24.02l.53-2.91-15.7-7.19.47-1.3,12.72,3.37c-1.7-4.33-9.01-18.54-31.41-15.99ZM290.21,170.81c-4.8,30.21,18.61,44.41,25.22,47.77l-10.71-23.28,1.2-.69,13.94,19.72c2.53-11,1.31-20.33-3.62-27.74-7.8-11.71-22.69-15.14-26.02-15.78ZM548.28,161.57l-22,37.3c44.79-16.54,38.18-51.17,36.9-56.38-36.3,6.85-38.68,36.83-38.7,44.21l23.8-25.13ZM629.92,164.72l1.17.75-16.22,29c8.2-3.15,42.61-18.73,36.45-56.41-3.8.58-23.32,4.23-34.13,18.95-6.64,9.04-8.83,20.56-6.51,34.26l19.25-26.54ZM813.4,697.65l-4.68-.23.17-.79c.27-1.31,6.66-31.86,10.85-36.93.94-2.78,16.76-49.83,14.31-65.02-.05-.05-9.23-21.89-.97-39.68l.41-.9.71.7c.19.18,18.92,19.03,7.88,40l-2.58,16.84,19.71-30.38,1.53-33.71c.11-.58,2.53-11.45,9.68-11.45h.36l.21.29c.27.38,5.53,8.02.62,22.54l5.62-9.06c.58-2.33,7.92-30.95,20.51-34.03l.91-.23-.05.95c-.07,1.04-1.71,25.43-15.32,34.08l-17.6,31.31c7.93-6.92,28.56-23.18,39.05-15.68l.43.3-.17.49c-.07.18-6.69,18.2-30.73,18.2-.26,0-.52,0-.78,0-2.19,1.59-23.4,17.4-33.3,39.73,7.56-8.81,28.41-30.19,47.69-23.63l.66.22-.22.66c-.22.66-5.88,16.3-38.57,22.76-2.42,2.53-33.48,35.68-36.27,71.98l-.05.67ZM810.42,696.11l1.7.08c3.27-37.82,36.42-71.98,36.76-72.32l.15-.15.21-.04c28.24-5.51,35.99-18.21,37.46-21.23-22.49-6.78-48.06,26.61-48.32,26.95l-2.78,3.66,1.57-4.32c9.46-26.1,35.43-44.56,35.69-44.75l.19-.13h.23c21.49.51,28.94-13.89,30.2-16.76-12.25-7.59-39.73,18.47-40.01,18.73l-3.37,3.22,22.3-39.49c11.62-7.23,14.27-27.33,14.73-32.07-11.47,4.22-18.49,32.53-18.57,32.83l-.08.2-11.3,18.23-1.2-.71c10.19-18.17,5.17-28.65,4.08-30.53-5.75.41-7.91,10.12-7.93,10.23l-1.54,33.97-.1.16-23.34,35.96,3.65-23.57c9.44-17.79-3.63-34.08-6.88-37.71-7.24,17.04,1.37,37.55,1.46,37.77,2.61,16.08-13.67,63.94-14.37,65.97l-.14.24c-3.08,3.47-8.08,24.35-10.46,35.61ZM772.94,695.86h-6.63l.08-.77c.05-.46,4.6-46.39-13.54-75.83-2.61-.85-22.75-7.75-26.55-19.56l-.33-1.02,3.5.39-6.85-6.57v-9.92l11.83.08c.35.18,6.79,3.61,8.87,8.27l1.42-6.36.84.56c.14.1,14.01,9.62,11.28,31.77,1.26,2.12,10.43,17.93,11.53,31.95,3.44-13.53,11.87-49.89,10.16-74.71l-.09-1.28c-.61-.97-1.05-1.87-1.33-2.54-3.89,4.53-8.11,6.74-12.59,6.43-8.8-.5-15.46-10.14-16.55-11.8-7.72-2.27-12.45-5.96-14.04-10.97-2.18-6.82,2.09-13.94,3.82-16.43-5.87-1.19-9.57-3.66-11-7.36-2.68-6.92,3.53-15.59,4.52-16.9,1.14-9.27,4.28-15.14,9.35-17.43,6.16-2.79,13.28.52,16.26,2.22-1.49-7.88-.45-13.75,3.1-17.45,4.91-5.11,12.92-4.36,14.89-4.08,1.59-2.08,3.62-3.3,6.03-3.63,5.34-.76,10.83,3.08,12.04,3.99,8-1,13.71.51,16.98,4.46,4.43,5.33,3.13,13.51,2.3,16.99,5.74-3.07,10.78-3.6,15.01-1.59,8.28,3.95,10.49,16.24,10.75,17.89,5.45,7.92,6.91,14.64,4.34,20-4.26,8.89-18.16,11.14-22.38,11.62,4.19,6.16,5.37,11.41,3.51,15.63-3.05,6.91-13.12,8.55-14.75,8.77-8.9,7.29-16.5,10.06-22.63,8.22-.84-.26-1.61-.58-2.31-.96-.13,5.93-.93,38.5-3.24,47.57-.08.35-8.67,36.61-7.61,69.61l.02.72ZM767.85,694.47h3.66c-.93-32.99,7.58-68.91,7.67-69.27,2.33-9.13,3.13-43.91,3.21-47.78l-2.36-1.83c1.61,31.15-11.57,78.49-11.71,78.98l-1.36-.26c1.46-13.81-9.02-32.75-11.08-36.3l-1.62.92c16.83,27.74,14.09,69.39,13.57,75.54ZM728.01,600.31c4.36,10.34,22.71,16.77,25.22,17.61l2.27-1.29c2.18-18.04-7-27.28-9.86-29.69l-1.78,7.96c-.01.06-.02.12-.04.18l-1.52,6.79-14.29-1.56ZM731.74,599.32l9.48,1.04,1.28-5.73c.97-5.16-7.33-9.97-8.55-10.64h-9.94v7.93l7.73,7.41ZM777.64,567.51l.39,1.27c.02.07,2.19,6.94,8.47,8.83,5.68,1.71,12.91-1.02,21.49-8.09l.16-.13.2-.02c.11-.01,10.92-1.35,13.84-7.99,1.74-3.96.38-9.09-4.06-15.23l-.73-1.01,1.24-.09c.18-.01,17.84-1.37,22.43-10.95,2.35-4.91.9-11.21-4.31-18.74l-.12-.3c-.02-.13-1.97-13.17-10-17-4.12-1.96-9.19-1.18-15.08,2.31l-18.84,20.77c.11.14.22.27.33.41l4.87-5.05,1,.97-5.07,5.26c.6,1.01,1.04,2.11,1.32,3.29l11.05-3.08.37,1.34-11.18,3.12c.05.45.08.9.08,1.35,0,.6-.04,1.18-.13,1.75l12.32-1.37.15,1.38-12.77,1.42c-.2.72-.47,1.42-.79,2.08l20.41,9.77-.6,1.25-20.5-9.81c-.58.89-1.27,1.7-2.06,2.4l5.37,9.68-1.22.67-5.26-9.48c-1.1.77-2.34,1.36-3.66,1.72l1.82,5.72-1.33.42-1.86-5.85c-.39.06-.8.1-1.2.12l-5.04,27.13-1.37-.25,5-26.89c-1.77-.12-3.43-.63-4.9-1.45l-3.94,7.18-1.22-.67,3.98-7.25c-.65-.47-1.26-.99-1.8-1.58l-10.57,9.41-.92-1.04,10.61-9.44c-.62-.85-1.14-1.79-1.53-2.79l.02.12-31.56,5.2-.23-1.37,31.38-5.18c-.2-.76-.33-1.54-.37-2.35h-10.84v-1.39h10.04l-5.2-.86.23-1.37,5.92.97s0-.05.01-.08l-14.55-6.26.55-1.28,14.32,6.17c.11-.36.23-.72.37-1.06l-1.86-1.24.77-1.16,1.69,1.12c.4-.72.87-1.4,1.4-2.02l-15.45-20.47,1.11-.84,15.33,20.3c.68-.62,1.43-1.17,2.24-1.62l-1.09-4.44,1.35-.34,1.02,4.16c.47-.19.96-.36,1.46-.49l-4.78-8.63,1.22-.67,5,9.02c.31-.04.62-.08.94-.09v-11.77h1.39v11.77c1.97.11,3.82.71,5.42,1.67l3.9-9.65,1.29.52-4.01,9.94c.32.24.61.51.91.78l18.72-20.65c.39-1.29,3.19-11.37-1.64-17.18-2.99-3.6-8.37-4.93-16.02-3.93l-.29.04-.23-.18c-.06-.04-5.87-4.62-11.22-3.88-2.15.3-3.94,1.45-5.35,3.41l-.26.36-.43-.08c-.1-.01-9.09-1.58-14.07,3.61-3.44,3.59-4.26,9.56-2.41,17.76l.39,1.73-1.46-1c-.09-.07-9.17-6.19-16.3-2.96-4.62,2.1-7.5,7.66-8.56,16.52l-.02.2-.12.15c-.07.09-7.01,9.1-4.44,15.7,1.33,3.43,5.04,5.68,11.03,6.69l1.16.2-.74.92c-.07.08-6.67,8.5-4.25,16.06,1.47,4.59,5.96,8,13.36,10.12l.26.08.14.22c.07.11,6.89,10.88,15.6,11.38,4.27.19,8.39-2.06,12.19-6.85l.82-1.03ZM783.58,518.21c-5.8,0-10.52,4.72-10.52,10.51s4.72,10.52,10.52,10.52,10.52-4.72,10.52-10.52-4.72-10.51-10.52-10.51ZM838.79,695.83c-.76,0-1.41-.14-1.92-.45l-.67-.4.47-.62c.12-.17,12.57-16.39,29.66-16.39.35,0,.7.01,1.05.02l1.88.08-1.48,1.16c-2.32,1.84-21.23,16.59-28.99,16.59ZM838.38,694.46c4.55.75,17.79-8.01,26.95-15.06-13.82.53-24.36,11.99-26.95,15.06ZM809.11,693.09h-4.53l.1-.78c.45-3.63,4.44-35.13,8.3-39.85v-13.73c-.29-1.17-7.39-32.4,1.94-44.59l.57-.74.55.76c.11.16,11.41,16.26,4.22,43.98l-11.15,54.96ZM806.16,691.7h1.81l10.94-53.87c6.1-23.55-1.34-38.42-3.47-42.01-8.03,12.27-1.16,42.45-1.09,42.76l.02,14.45-.21.21c-2.94,2.84-6.67,28.01-8,38.47ZM719.43,690.51l-1.1-.59c-.15-.08-15.72-8.55-20.37-24.55l-.4-1.38,1.33.54c.2.08,19.42,8.06,20.46,24.74l.08,1.24ZM699.77,666.47c4.14,12.04,14.59,19.37,18.07,21.55-1.58-12.38-13.87-19.47-18.07-21.55ZM729.63,688.21l.15-1.29c.12-.99,3.06-24.38,18.45-29.34l1.31-.42-.44,1.31c-.33.97-8.16,23.95-18.32,29.15l-1.16.59ZM747.29,659.42c-11.35,4.8-15.04,21.26-15.91,26.23,7.73-5.23,14.12-21.38,15.91-26.23ZM726.31,687.7h-5.96l-.07-.62c-.03-.26-2.93-25.82-14.17-36.81l-.21-.21v-12.84l1.06.65c.42.26,9.16,5.82,13.32,24.3v-19.31c-1.4-1.48-8.98-10.3-5.89-24.57l.26-1.2,9.08,8.49v45.14c1.26-5.93,3.07-14.68,4.01-20.3l.05-.17c.88-1.93,8.79-18.85,14.63-19.91l.99-.18-.18.99c-.16.86-3.89,20.98-9.09,25.46-.77,1.98-8.08,21.08-7.85,30.38l.02.71ZM721.59,686.31h3.3c.11-10.25,7.69-29.53,8.02-30.37l.07-.17.14-.11c4.19-3.35,7.6-19.05,8.51-23.55-4.31,2.38-10.36,13.93-12.53,18.65-1.54,9.18-5.35,26.47-5.38,26.65l-1.37,6.23v-57.43l-6.83-6.39c-2.49,14.1,5.86,22.19,5.95,22.27l.22.21v28.03l-1.39.09c-2.44-19.73-10.16-28.06-13-30.51v9.59c10.58,10.59,13.79,32.74,14.3,36.83ZM246.97,529.12c-4.86,0-10.27-.5-16.31-1.65l-.75-.15.21-.73c.11-.4,12.13-39.51,57.09-30.28l1.89.39-24.08,12.86,23.02-6.58-.3,1.17c-.07.29-6.77,24.98-40.77,24.98ZM231.7,526.24c41.55,7.62,52.33-15.55,54.32-21.25l-33.18,9.48,32.17-17.17c-38.82-6.9-51.46,23.76-53.31,28.94ZM691.66,494.7l-.66-.05c-.41-.04-41.2-3.89-41.74-49.52l-.02-1.77,22.05,23.26-13.27-22.35,1.4.16c.15.02,15.37,1.93,25.02,14.38,6.84,8.83,9.3,20.68,7.31,35.23l-.09.65ZM650.69,446.91c1.45,39.55,34.65,45.58,39.77,46.27,1.77-13.85-.62-25.12-7.11-33.5-7.57-9.77-18.7-12.81-22.65-13.62l18.13,30.53-28.14-29.68ZM341.78,486.56l-1.5-.29c-.24-.04-23.74-4.84-23.74-31.95v-.82l.81.13c.31.05,31.16,5.34,28.53,28.36l-.15,1.3-11.75-10.11,7.8,13.37ZM317.94,455.16c.4,21.53,15.95,27.85,21.04,29.34l-10.37-17.79,16.01,13.77c1.03-18.6-22.01-24.36-26.67-25.33ZM296.68,478.69l-1.58-.14c-.34-.03-33.67-3.45-32.64-41.54l.02-.77.76.1c.33.04,32.94,4.61,39.58,38.12l.33,1.65-17.39-11.63,10.91,14.21ZM263.84,437.85c-.47,31.67,23.14,37.95,29.74,39.09l-14.06-18.31,21.59,14.45c-6.54-28.26-32.46-34.33-37.27-35.22ZM758.33,453.91c-11.66,0-25.88-3.48-34.21-18.09l-.79-1.39,18.42,4.38-20.15-8.26,1.46-.67c.35-.16,35.95-15.85,54.75,20.17l.37.71-.76.26c-.18.06-8.6,2.88-19.08,2.88ZM726.17,436.53c14.38,22.84,44.76,15,50.01,13.43-16.26-30.16-44.08-22.05-51-19.44l25.35,10.39-.42,1.32-23.94-5.69ZM300.58,438.82c-10.27,0-20.7-6.38-21.23-6.71l-.62-.38.41-.6c13.38-19.69,36.24-12.85,36.47-12.77l1.6.5-12.24,6.46h13.26l-.33.93c-2.13,5.92-5.73,9.8-10.7,11.53-2.13.74-4.37,1.05-6.61,1.05ZM280.71,431.29c3.01,1.71,16.11,8.62,26.02,5.16,4.29-1.5,7.48-4.78,9.49-9.76h-16.88l14.1-7.44c-5.38-1.09-22.03-3.01-32.73,12.04ZM226.96,438.39c-7.86,0-16.53-2.46-25.92-7.36l-.68-.35.42-.64c.21-.32,20.96-31.56,55.66-16.82l1.45.61-19.21,8.87,18.68-4.31-.55,1.26c-.21.5-5.38,12.17-18.59,16.86-3.54,1.26-7.3,1.88-11.26,1.88ZM202.38,430.16c13.47,6.89,25.35,8.58,35.34,5.05,10.11-3.58,15.4-11.66,17.14-14.81l-29.02,6.69,28.57-13.19c-30.02-11.76-48.96,12.02-52.04,16.26ZM413.03,432.72c-4.52,0-9.29-1.18-14.13-4.18l-1.19-.74,15.56-6-18.31,2.92.77-1.28c.31-.51,7.67-12.51,21.09-15.42,8.49-1.84,17.45.42,26.61,6.72l.61.42-.46.58c-.17.21-13.56,16.96-30.55,16.96ZM400.86,428.09c19.69,10.89,37.99-8.92,41.15-12.61-8.61-5.74-16.98-7.79-24.89-6.09-10.29,2.22-17.02,10.3-19.32,13.48l28.29-4.51-25.23,9.72ZM746.3,420.41c-4.91,0-10.19-.98-15.78-3.33l-1.4-.59,20.75-10.26-22.51,6.02.59-1.33c.07-.15,6.91-15.23,22.02-20.09,10.31-3.33,21.99-1.21,34.7,6.25l.63.37-.41.61c-.18.27-15.23,22.35-38.59,22.35ZM732.49,416.37c27.92,10.68,47.69-14.22,50.81-18.48-12.09-6.94-23.16-8.87-32.9-5.75-11.88,3.81-18.46,14.24-20.5,17.98l26.36-7.05.49,1.29-24.26,12ZM395.79,399.23l8.92-20.41-12.06,17.68-.32-1.64c-.07-.37-1.75-9.29,1.02-19.22,2.57-9.21,9.61-20.96,28.58-24.63l.57-.11.21.54c.22.58,5.34,14.25-.94,27.66-4.18,8.92-12.43,15.52-24.49,19.61l-1.49.51ZM407.75,371.91l1.21.67-10.62,24.3c10.88-3.99,18.34-10.16,22.18-18.36,5.35-11.41,1.97-23.35,1.09-26.02-30.28,6.22-29.06,33.19-28.18,40.38l14.32-20.98ZM225.01,398.7c-10.08,0-24.84-4.31-34.95-26.11l-.34-.74.79-.22c.39-.11,39.31-10.76,48.31,19.6l.37,1.24-18.76-5.7,17.11,9.54-1.34.55c-.11.05-4.68,1.84-11.19,1.84ZM191.68,372.76c14,29.28,36.61,25,42.54,23.28l-25.81-14.38,28.67,8.71c-8.54-25.22-39.97-18.91-45.41-17.61ZM259.22,387.71l-1.4-.4c-.33-.09-32.9-9.8-26.99-47.85l.11-.68.68.1c.73.1,17.9,2.69,27.26,15.76,5.33,7.44,6.99,16.76,4.94,27.72l-.29,1.53-13.34-17.46,9.03,21.28ZM232.1,340.38c-4.64,32.16,18.51,42.87,24.67,45.12l-12.17-28.67,18.12,23.72c1.55-9.89-.12-18.32-4.96-25.08-7.98-11.15-22.36-14.46-25.65-15.08ZM310.71,384.91c-2.1,0-14.57-.41-24.38-9.79-7.54-7.2-11.48-17.8-11.72-31.5v-.82s.8.12.8.12c.39.06,38.97,6.03,39.95,34.5l.05,1.32-18.42-11.69,15.49,17.81-1.47.04s-.14,0-.29,0ZM276.01,344.44c.38,12.9,4.16,22.88,11.26,29.66,8.07,7.72,18.29,9.11,22.13,9.36l-19.74-22.7,24.22,15.37c-1.92-23.97-32.45-30.69-37.87-31.7ZM711.22,384.45c-6.18,0-12.89-1.46-19.93-5.19l-1.54-.81,23.42-6.55-23.37,1.5,1.32-1.31c.29-.28,29.17-28.3,57.19-6.96l.58.44-.46.56c-.2.23-15.43,18.33-37.21,18.33ZM693.52,378.83c27.72,13.43,49.85-9.18,53.35-13.05-23.33-17.17-47.25.77-53.31,5.97l32.77-2.1-32.81,9.18ZM376.31,382.91l-1.12-1.33c-.22-.26-22.17-26.88-.02-56.41l.45-.6.56.49c.27.23,26.36,23.55,6,52.42l-1,1.42-3.28-22.29-1.58,26.29ZM375.82,326.62c-17.85,24.45-4.77,46.72-.68,52.57l2.17-36.08,4.72,32.1c16.49-25.16-2.54-45.11-6.21-48.6ZM451.71,376.79c-4.44,0-9.31-.37-14.66-1.22l-.81-.13.26-.78c.08-.23,7.96-23.32,26.54-31.37,9.85-4.26,20.91-3.62,32.9,1.9l1.4.65-25.41,11.15,22.54-3.92-.37,1.11c-.09.26-8.1,22.61-42.38,22.61ZM438.1,374.33c39.52,5.94,51.77-14.38,54.19-19.47l-31.42,5.47,33.05-14.51c-11.06-4.75-21.25-5.17-30.33-1.25-16.1,6.97-23.96,25.71-25.5,29.76ZM560.05,360.75l-1.04-.89c-9.53-8.14-14.61-17.42-15.11-27.61-.88-17.92,12.99-32.56,13.13-32.71l.45-.46.49.41c12.1,9.93,18.42,20.62,18.78,31.75.5,15.42-10.55,25.96-11.02,26.4l-1.02.95-2.65-24.47-2.01,26.64ZM557.6,300.99c-2.31,2.62-13.08,15.67-12.31,31.21.47,9.41,5.03,18.05,13.58,25.7l2.38-31.44,1.39-.02,3.15,29.13c2.72-3.01,9.98-12.21,9.58-24.3-.35-10.55-6.32-20.74-17.76-30.28ZM347.31,357.95l-8.56-18.32,2.22,17.15-1.4-1.26c-.3-.26-29.31-26.82-11.89-53.13l.39-.59.58.39c.37.26,37.13,25.72,19.33,54.64l-.68,1.1ZM336.22,330.93l11.25,24.07c14.37-25.36-14.5-47.92-19.01-51.23-13.79,21.75,5.15,43.69,10.64,49.33l-2.88-22.18ZM695.47,356.94l19.8-23.82-18.89,15.31.06-1.54c.52-12.63,4.56-22.39,12.01-28.99,11.72-10.38,27.52-9.24,28.19-9.2l.6.05.04.6c2.77,41.27-39.62,47.3-40.05,47.36l-1.76.23ZM719.87,327.6l.97.99-21.96,26.41c7.98-1.67,38.98-10.41,37.04-44.93-3.04-.1-16.55,0-26.57,8.89-6.85,6.07-10.69,14.96-11.45,26.44l21.96-17.8ZM307.92,336.78l-14.92-13.52,10.51,12.41-1.26.17c-.5.06-12.4,1.55-23.16-6.79-8.66-6.7-13.97-17.74-15.79-32.81l-.09-.73.73-.05c.22-.02,21.73-1.31,34.57,11.34,6.93,6.83,10.12,16.42,9.49,28.5l-.08,1.46ZM264.76,296.83c1.85,14.3,6.95,24.77,15.16,31.13,8.27,6.41,17.44,6.72,20.81,6.6l-15.59-18.41,1-.96,20.52,18.58c.29-10.97-2.78-19.7-9.14-25.96-11.07-10.91-28.95-11.09-32.76-10.97ZM367.19,305.18c-4.39,0-9.41-.51-15.14-1.71l-.81-.17.3-.77c.13-.33,13.1-32.09,44.97-22.85l1.61.47-19.36,10.64,18.48-4-.26,1.07c-.05.2-4.44,17.31-29.81,17.31ZM353.17,302.27c32.35,6.48,40.51-9.2,42.13-13.63l-25.56,5.54,24.73-13.6c-27.12-6.83-39.2,16.96-41.31,21.7ZM310.73,285.67c-10.82,0-19.32-3.13-19.49-3.2l-.75-.28.39-.7c8.82-16.09,19.53-25.87,31.82-29.08,14.68-3.82,26.05,3.15,26.54,3.44l1.18.74-28.43,10.97,24.89-1.43-.74,1.15c-9.56,14.8-23.82,18.39-35.41,18.39ZM292.49,281.43c5.16,1.7,35.13,10.21,51.71-13.76l-30.99,1.78,34-13.12c-3.35-1.67-12.88-5.54-24.18-2.58-11.72,3.07-21.99,12.37-30.53,27.67ZM727.78,262.69c-12.65,0-22.65-6.7-22.76-6.78l-1.31-.89,19.15-4.5h-18.85l.84-1.12c20.84-27.5,54.12-7,54.44-6.79l.61.38-.4.59c-6.94,10.37-15.44,16.59-25.26,18.49-2.21.43-4.37.61-6.47.61ZM707.23,255.62c3.79,2.15,14.69,7.43,26.77,5.08,9.24-1.8,17.3-7.61,23.94-17.29-4.52-2.57-32.57-17.16-51.1,5.71h28.02l-27.63,6.5ZM621.61,260l5.04-28.99-8.16,16.54-.62-1.29c-12.01-25.14,15.75-39.94,16.04-40.08l.63-.33.31.64c13.74,28.11-11.49,51.89-11.74,52.12l-1.51,1.39ZM629.68,221.73l-5.96,34.26c5.16-5.62,20.88-25.43,10.21-48.24-4.02,2.28-24.52,15.23-15.39,36.58l11.15-22.6ZM277.66,258.71c-14.24,0-26.36-6.01-26.58-6.12l-.67-.34.38-.64c22.14-36.94,59.74-19.89,60.12-19.71l1.46.68-23.84,9.4,23.46-2.64-.79,1.23c-9.1,14.2-22.01,18.14-33.54,18.14ZM252.38,251.67c5.17,2.36,38.42,16.14,56.82-10.61l-30.96,3.49,30.49-12.02c-7.21-2.71-37.4-11.66-56.36,19.15ZM396.81,255.86l-12.37-14.28,5.28,13.62-1.27-.29c-.2-.04-19.33-4.69-16.36-33.03l.1-.89.84.31c.27.1,26.98,10.29,23.99,33.02l-.2,1.53ZM373.38,222.96c-1.99,22.26,9.95,28.66,14.05,30.18l-7.18-18.53,15.54,17.95c1.27-18.33-18.09-27.74-22.41-29.6ZM523.95,251.03l-.46-1.57c-10.53-35.46,28.66-55.24,29.06-55.44l.68-.33.28.7c13.31,33.83-20.67,52.81-21.01,53l-1.4.76,4.55-17.73-11.68,20.6ZM552.48,195.63c-5.02,2.73-36.02,21.02-28.11,51.83l15.21-26.81-6.33,24.65c6.19-3.97,29.84-21.4,19.23-49.67ZM681.4,247.84l17.77-23.73-18.97,16.7.24-1.84c5.82-44.04,40.68-40.37,41.05-40.32l.59.07.02.59c1.66,39.31-38.5,48.07-38.9,48.16l-1.8.37ZM708.34,214.18l-23.53,31.43c7.79-2.25,36.95-12.88,35.93-45.64-4.57-.33-32.73-.84-38.65,37.32l26.25-23.11ZM659.58,245.04l5.22-22.92-9.01,20.22-.66-1.3c-6.09-12.01-7.32-23.28-3.65-33.49,6.28-17.49,25.04-25.85,25.23-25.94l.54-.23.32.49c20.25,31.06-16.05,61.57-16.42,61.87l-1.58,1.3ZM666.43,215.06l1.31.44-5.86,25.73c6.71-6.27,31.32-32.02,14.86-58.09-3.07,1.49-18.46,9.61-23.95,24.89-3.4,9.46-2.41,19.91,2.93,31.06l10.71-24.02ZM599.74,240.93l-11.78-20.44,4.25,16.08-1.24-.44c-10.48-3.73-17.36-9.76-20.45-17.91-5.69-15.03,3.4-31.75,3.79-32.46l.3-.54.57.23c34.1,13.58,25.07,53.37,24.97,53.77l-.4,1.7ZM583.94,210.74l15.19,26.35c1.27-7.78,4.34-38.44-23.89-50.11-1.51,3-8.33,17.8-3.43,30.75,2.81,7.43,8.99,13.01,18.37,16.63l-6.24-23.62ZM462.39,235.88l-1.36-.07c-.28-.02-28.23-1.87-30.09-33.76l-.04-.74h.74c.35,0,34.9.33,34.9,29.02v1.4l-13.41-10.22,9.26,14.36ZM432.38,202.72c1.89,26.24,21.75,30.79,27.32,31.55l-12.04-18.67,17.46,13.31c-1.02-24-27.78-26.02-32.74-26.19ZM500.8,228.27l-.97-1.64c-.16-.27-15.46-26.87,10.08-48.33l.66-.56.4.77c.12.23,11.86,23.21-5.01,34.79l-1.09.75v-9.98l-4.08,24.21ZM510.12,179.95c-20.27,17.62-12.94,38.02-10.03,44.17l4.8-28.48,1.38.12v15.6c12.65-9.88,5.64-27.46,3.85-31.4ZM355.27,225.49l-6.28-22.56,2.19,22.16-1.22-.8c-.33-.22-32.66-22.16-8.67-61.63l.4-.66.61.47c.34.26,34.1,26.52,13.79,61.59l-.83,1.43ZM342.06,164.06c-20.18,33.95,1.76,53.82,7.44,58.18l-2.68-27.15,1.36-.26,7.53,27.06c16.54-30.69-9.29-54.18-13.65-57.83ZM408.05,220.76c-3.41,0-13.4-.7-22.16-8.28-8.34-7.21-13.09-18.52-14.12-33.6l-.06-.84.84.1c.39.05,39.18,5.23,39.18,36.74v1.32l-14.94-10.26,13.92,14.67-1.46.11c-.09,0-.51.04-1.2.04ZM373.22,179.65c1.12,14.25,5.68,24.93,13.56,31.76,7.96,6.89,17.2,7.85,20.81,7.94l-20.88-22.02,23.61,16.2c-.99-26.6-31.58-32.96-37.09-33.89ZM279.29,218.03c-8.76,0-22.82-4.11-34.77-26.36l-.36-.66.69-.3c.29-.14,29.61-12.59,45.41,18.71l.67,1.33-19.06-4.41,17.11,9.73-1.27.56c-.09.04-3.38,1.41-8.43,1.41ZM246.12,191.7c15.56,28.37,34.36,25.57,39.62,24.11l-22.84-12.99,25.43,5.88c-13.96-25.87-37.81-18.62-42.21-17.01ZM464.93,196.56l-1.35-.11c-.2-.02-19.88-1.8-30.37-16.19-6.62-9.08-8.24-21.13-4.82-35.82l.14-.59.6.05c.43.04,42.94,4.28,40.73,47.85l-.08,1.6-17.78-18.35,12.94,21.57ZM429.6,145.35c-3.14,14-1.55,25.46,4.72,34.07,8.52,11.69,23.39,14.77,27.98,15.46l-17.72-29.54,23.94,24.72c.95-37.98-33.89-44.03-38.93-44.71ZM592.82,175l-.96-.78c-9.27-7.5-13.74-15.85-13.31-24.82.92-18.97,23.17-33.88,24.12-34.51l.57-.38.39.57c18.85,27.72-4.79,54.66-5.03,54.93l-1.13,1.26-1.09-23.18-3.56,26.9ZM602.87,116.45c-3.52,2.49-22.13,16.41-22.93,33.03-.39,8.18,3.59,15.88,11.83,22.87l4.25-32.13,1.39.06,1.29,27.42c4.39-5.72,19.36-28.17,4.18-51.24ZM390.2,166.7c-7.3,0-37.41-2.12-47.15-36.22l-.22-.77.79-.11c.41-.05,41.2-5.21,46.77,28.9l.2,1.22-13.34-5.41,16.4,12.2-1.84.15s-.61.04-1.6.04ZM344.62,130.88c9.52,31.76,37.38,34.33,45.08,34.42l-22.02-16.38,21.11,8.56c-5.63-28.89-38.58-27.12-44.17-26.6ZM401.82,157.86l-1.23-1.36c-.25-.28-24.8-27.97-2.96-54.25l.42-.5.53.39c.32.23,31.4,23.65,10.83,52.83l-.84,1.19-7.06-25.03.33,26.74ZM398.27,103.66c-17.53,21.73-2.5,44.4,2.11,50.39l-.41-33.43,9.12,32.32c16.99-25.77-6.79-46.1-10.83-49.28ZM504.04,157l15.79-22.55-12.94,11.53-.17-1.3c-.04-.28-3.31-28.62,34.66-42.63l.8-.29.13.84c.07.46,6.89,46.64-36.62,54.13l-1.64.28ZM527.82,125.46l-20.71,29.57c37.2-7.5,34.61-45.21,33.93-51.38-31.3,11.91-33.1,33.75-33.01,39.45l19.79-17.64ZM470.44,153.19l-1.45-.55c-.42-.16-41.72-16.6-27.35-63.75l.23-.74.71.3c.43.18,42.47,18.63,32.04,58.19l-.41,1.54-13.78-21.64,10.01,26.65ZM442.74,90.06c-11.83,40.23,18.12,57.21,25.26,60.62l-13.57-36.15,19.22,30.19c7.99-34.56-25.55-52.11-30.91-54.66ZM487.33,131.56l-.75-1.25c-.19-.32-18.67-32.16,19.36-55.79l.63-.39.35.65c.19.35,18.41,35-12.12,55.16l-1.23.81,2.36-22.73-8.61,23.54ZM506.03,76.11c-31.66,20.1-21.91,45.94-18.96,52.12l11.41-31.2-3.2,30.91c25.52-18.01,13.04-47.07,10.76-51.83Z"/>
</svg>