<svg width="910" height="1713" viewBox="0 0 910 1713" fill="none" xmlns="http://www.w3.org/2000/svg">
<path d="M113.75 593.125C113.75 624.536 88.2862 650 56.875 650C25.4638 650 -4.53521e-05 675.464 -4.39791e-05 706.875L-3.49691e-06 1633C-1.56562e-06 1677.18 35.8172 1713 80 1713L716.25 1713C760.433 1713 796.25 1677.18 796.25 1633L796.25 1016.87C796.25 985.464 821.714 960 853.125 960C884.536 960 910 934.536 910 903.125L910 79.9999C910 35.8172 874.183 -3.82117e-05 830 -3.62805e-05L193.75 -8.46908e-06C149.567 -6.53779e-06 113.75 35.8172 113.75 80L113.75 593.125Z" fill="#D9D9D9"/>
</svg>
